# xmcd CD database file
#
# Track frame offsets:
#	183
#	20995
#	38665
#	55480
#	75970
#	89158
#	112565
#	131793
#	155928
#	175758
#
# Disc length: 2628 seconds
#
# Revision: 2
# Processed by: cddbd v1.5.2PL0 Copyright (c) Steve Scherf et al.
# Submitted via: CDex 1.51
#
DISCID=800a420a
DTITLE=Sandra de la Rosa - Llego Abril
DYEAR=2008
DGENRE=Blues
TTITLE0=Dejame
TTITLE1=Como tu no te imaginas
TTITLE2=Contigo
TTITLE3=Enamorado
TTITLE4=Mientras existas tu
TTITLE5=Llego abril
TTITLE6=Mirame
TTITLE7=Te quiero
TTITLE8=Zarpo del puerto
TTITLE9=Para que volver
EXTD=YEAR: 2008
EXTT0=
EXTT1=
EXTT2=
EXTT3=
EXTT4=
EXTT5=
EXTT6=
EXTT7=
EXTT8=
EXTT9=
PLAYORDER=
